<?xml version="1.0" encoding="utf-8"?>
<!-- Generator: Adobe Illustrator 16.0.0, SVG Export Plug-In . SVG Version: 6.00 Build 0)  -->
<!DOCTYPE svg PUBLIC "-//W3C//DTD SVG 1.1//EN" "http://www.w3.org/Graphics/SVG/1.1/DTD/svg11.dtd">
<svg version="1.1" id="Capa_1" xmlns="http://www.w3.org/2000/svg" xmlns:xlink="http://www.w3.org/1999/xlink" x="0px" y="0px"
	 width="373.193px" height="424.359px" viewBox="0 79.664 373.193 424.359" enable-background="new 0 79.664 373.193 424.359"
	 xml:space="preserve">
<g>
	<path fill="#FFFFFF" d="M76.757,245.091H19.191C8.592,245.091,0,253.684,0,264.281v220.55c0,10.599,8.592,19.191,19.191,19.191
		h57.566c10.598,0,19.19-8.593,19.19-19.191V264.275C95.953,253.677,87.354,245.091,76.757,245.091z"/>
	<path fill="#FFFFFF" d="M215.383,162.376h-57.565c-10.599,0-19.191,8.592-19.191,19.191V484.83c0,10.6,8.592,19.191,19.191,19.191
		h57.565c10.599,0,19.191-8.592,19.191-19.191V181.562C234.573,170.97,225.981,162.376,215.383,162.376z"/>
	<path fill="#FFFFFF" d="M354.01,79.664h-57.572c-10.598,0-19.189,8.592-19.189,19.19V484.83c0,10.6,8.592,19.191,19.189,19.191
		h57.566c10.598,0,19.189-8.592,19.189-19.191V98.848C373.193,88.25,364.602,79.664,354.01,79.664z"/>
</g>
</svg>
